<svg width="23" height="23" viewBox="0 0 23 23" fill="none" xmlns="http://www.w3.org/2000/svg">
    <path fill-rule="evenodd" clip-rule="evenodd" d="M-0.884644 -1.76953H24.7692V0.203842H-0.884644V-1.76953ZM-0.884644 2.17721H24.7692V4.15059H-0.884644V2.17721ZM-0.884644 6.12396H24.7692V8.09733H-0.884644V6.12396ZM-0.884644 10.0707H24.7692V12.0441H-0.884644V10.0707ZM-0.884644 14.0175H24.7692V15.9908H-0.884644V14.0175ZM-0.884644 17.9642H24.7692V19.9376H-0.884644V17.9642ZM-0.884644 21.9109H24.7692V23.8843H-0.884644V21.9109Z" fill="#BD3D44"/>
    <path fill-rule="evenodd" clip-rule="evenodd" d="M-0.884644 0H24.7692V2.01049H-0.884644V0ZM-0.884644 4.02098H24.7692V6.03147H-0.884644V4.02098ZM-0.884644 8.04196H24.7692V10.0524H-0.884644V8.04196ZM-0.884644 12.0629H24.7692V14.0734H-0.884644V12.0629ZM-0.884644 16.0839H24.7692V18.0944H-0.884644V16.0839ZM-0.884644 20.1049H24.7692V22.1154H-0.884644V20.1049Z" fill="white"/>
    <path fill-rule="evenodd" clip-rule="evenodd" d="M-0.884644 -1.76953H18.6125V12.0442H-0.884644V-1.76953Z" fill="#192F5D"/>
    <path fill-rule="evenodd" clip-rule="evenodd" d="M0.733573 -1.17773L0.930912 -0.625185H1.48346L1.02958 -0.289708L1.20719 0.243108L0.733573 -0.092369L0.299427 0.243108L0.477032 -0.289708L0.00341797 -0.625185H0.595436L0.733573 -1.17773ZM3.98967 -1.17773L4.16728 -0.625185H4.73956L4.26595 -0.289708L4.46328 0.243108L3.98967 -0.092369L3.51606 0.243108L3.7134 -0.289708L3.23978 -0.625185H3.81207L3.98967 -1.17773ZM7.24577 -1.17773L7.42337 -0.625185H7.99566L7.52204 -0.289708L7.71938 0.243108L7.24577 -0.092369L6.77215 0.243108L6.96949 -0.289708L6.49588 -0.625185H7.06816L7.24577 -1.17773ZM10.4821 -1.17773L10.6795 -0.625185H11.232L10.7781 -0.289708L10.9557 0.243108L10.4821 -0.092369L10.0283 0.243108L10.2059 -0.289708L9.73224 -0.625185H10.3243L10.4821 -1.17773ZM13.7382 -1.17773L13.9158 -0.625185H14.4881L14.0145 -0.289708L14.2118 0.243108L13.7185 -0.092369L13.2646 0.243108L13.4422 -0.289708L12.9686 -0.625185H13.5409L13.7382 -1.17773ZM16.9943 -1.17773L17.1719 -0.625185H17.7442L17.2706 -0.289708L17.4679 0.243108L16.9943 -0.092369L16.5207 0.243108L16.7181 -0.289708L16.2444 -0.625185H16.8167L16.9943 -1.17773ZM2.37149 0.20364L2.54909 0.756189H3.12138L2.64776 1.09167L2.8451 1.62448L2.37149 1.28901L1.89787 1.62448L2.09521 1.09167L1.6216 0.756189H2.19388L2.37149 0.20364ZM5.60785 0.20364L5.80519 0.756189H6.35774L5.90386 1.09167L6.08147 1.62448L5.60785 1.28901L5.15397 1.62448L5.33158 1.09167L4.85796 0.756189H5.44998L5.60785 0.20364ZM8.86395 0.20364L9.04156 0.756189H9.61384L9.14023 1.09167L9.33756 1.62448L8.86395 1.28901L8.39034 1.62448L8.58768 1.09167L8.11406 0.756189H8.68635L8.86395 0.20364ZM12.12 0.20364L12.2977 0.756189H12.8699L12.3963 1.09167L12.5937 1.62448L12.12 1.28901L11.6464 1.62448L11.8438 1.09167L11.3702 0.756189H11.9424L12.12 0.20364ZM15.3564 0.20364L15.5538 0.756189H16.0866L15.6327 1.09167L15.8103 1.62448L15.3367 1.28901L14.8828 1.62448L15.0604 1.09167L14.5868 0.756189H15.1788L15.3564 0.20364ZM0.753307 1.58501L0.911179 2.13756H1.5032L1.02958 2.47304L1.20719 3.00586L0.733573 2.67038L0.299427 3.00586L0.477032 2.47304L0.00341797 2.13756H0.595436L0.753307 1.58501ZM3.98967 1.58501L4.16728 2.13756H4.73956L4.28568 2.47304L4.46328 3.00586L3.98967 2.67038L3.53579 3.00586L3.7134 2.47304L3.23978 2.13756H3.81207L3.98967 1.58501ZM7.24577 1.58501L7.42337 2.13756H7.99566L7.52204 2.47304L7.71938 3.00586L7.24577 2.67038L6.77215 3.00586L6.96949 2.47304L6.49588 2.13756H7.06816L7.24577 1.58501ZM10.4821 1.58501L10.6795 2.13756H11.232L10.7781 2.47304L10.9557 3.00586L10.4821 2.67038L10.0283 3.00586L10.2059 2.47304L9.73224 2.13756H10.3243L10.4821 1.58501ZM13.7382 1.58501L13.9158 2.13756H14.4881L14.0342 2.47304L14.2118 3.00586L13.7382 2.67038L13.2844 3.00586L13.462 2.47304L12.9883 2.13756H13.5606L13.7382 1.58501ZM16.9943 1.58501L17.1719 2.13756H17.7442L17.2706 2.47304L17.4679 3.00586L16.9943 2.67038L16.5207 3.00586L16.7181 2.47304L16.2444 2.13756H16.8167L16.9943 1.58501ZM2.37149 2.96639L2.54909 3.51894H3.12138L2.64776 3.85441L2.8451 4.38723L2.37149 4.05175L1.89787 4.38723L2.09521 3.85441L1.6216 3.51894H2.19388L2.37149 2.96639ZM5.60785 2.96639L5.80519 3.51894H6.35774L5.90386 3.85441L6.08147 4.38723L5.60785 4.05175L5.15397 4.38723L5.33158 3.85441L4.85796 3.51894H5.44998L5.60785 2.96639ZM8.86395 2.96639L9.04156 3.51894H9.61384L9.15996 3.85441L9.33756 4.38723L8.86395 4.05175L8.41007 4.38723L8.58768 3.85441L8.11406 3.51894H8.68635L8.86395 2.96639ZM12.12 2.96639L12.2977 3.51894H12.8699L12.3963 3.85441L12.5937 4.38723L12.12 4.05175L11.6464 4.38723L11.8438 3.85441L11.3702 3.51894H11.9424L12.12 2.96639ZM15.3564 2.96639L15.5538 3.51894H16.0866L15.6327 3.85441L15.8103 4.38723L15.3367 4.05175L14.8828 4.38723L15.0604 3.85441L14.5868 3.51894H15.1788L15.3564 2.96639ZM0.753307 4.34776L0.911179 4.90031H1.5032L1.02958 5.23579L1.20719 5.7686L0.733573 5.43313L0.299427 5.7686L0.477032 5.23579L0.00341797 4.90031H0.595436L0.753307 4.34776ZM3.98967 4.34776L4.16728 4.90031H4.73956L4.28568 5.23579L4.46328 5.7686L3.98967 5.43313L3.53579 5.7686L3.7134 5.23579L3.23978 4.90031H3.81207L3.98967 4.34776ZM7.24577 4.34776L7.42337 4.90031H7.99566L7.52204 5.23579L7.71938 5.7686L7.24577 5.43313L6.77215 5.7686L6.96949 5.23579L6.49588 4.90031H7.06816L7.24577 4.34776ZM10.4821 4.34776L10.6795 4.90031H11.232L10.7781 5.23579L10.9557 5.7686L10.4821 5.43313L10.0283 5.7686L10.2059 5.23579L9.73224 4.90031H10.3243L10.4821 4.34776ZM13.7382 4.34776L13.9158 4.90031H14.4881L14.0342 5.23579L14.2118 5.7686L13.7382 5.43313L13.2844 5.7686L13.462 5.23579L12.9883 4.90031H13.5606L13.7382 4.34776ZM16.9943 4.34776L17.1719 4.90031H17.7442L17.2706 5.23579L17.4679 5.7686L16.9943 5.43313L16.5207 5.7686L16.7181 5.23579L16.2444 4.90031H16.8167L16.9943 4.34776ZM2.37149 5.72914L2.54909 6.28169H3.12138L2.64776 6.61716L2.8451 7.14998L2.37149 6.8145L1.89787 7.14998L2.09521 6.61716L1.6216 6.28169H2.19388L2.37149 5.72914ZM5.60785 5.72914L5.80519 6.28169H6.35774L5.90386 6.61716L6.08147 7.14998L5.60785 6.8145L5.15397 7.14998L5.33158 6.61716L4.85796 6.28169H5.44998L5.60785 5.72914ZM8.86395 5.72914L9.04156 6.28169H9.61384L9.15996 6.61716L9.33756 7.14998L8.86395 6.8145L8.41007 7.14998L8.58768 6.61716L8.11406 6.28169H8.68635L8.86395 5.72914ZM12.12 5.72914L12.2977 6.28169H12.8699L12.3963 6.61716L12.5937 7.14998L12.12 6.8145L11.6464 7.14998L11.8438 6.61716L11.3702 6.28169H11.9424L12.12 5.72914ZM15.3564 5.72914L15.5538 6.28169H16.0866L15.6327 6.61716L15.8103 7.14998L15.3367 6.8145L14.8828 7.14998L15.0604 6.61716L14.5868 6.28169H15.1788L15.3564 5.72914ZM0.753307 7.11051L0.911179 7.66306H1.5032L1.02958 7.99854L1.20719 8.53135L0.733573 8.19588L0.299427 8.53135L0.477032 7.99854L0.00341797 7.66306H0.595436L0.753307 7.11051ZM3.98967 7.11051L4.16728 7.66306H4.73956L4.28568 7.99854L4.46328 8.53135L3.98967 8.19588L3.53579 8.53135L3.7134 7.99854L3.23978 7.66306H3.81207L3.98967 7.11051ZM7.24577 7.11051L7.42337 7.66306H7.99566L7.52204 7.99854L7.71938 8.53135L7.24577 8.19588L6.77215 8.53135L6.96949 7.99854L6.49588 7.66306H7.06816L7.24577 7.11051ZM10.4821 7.11051L10.6795 7.66306H11.232L10.7781 7.99854L10.9557 8.53135L10.4821 8.19588L10.0283 8.53135L10.2059 7.99854L9.73224 7.66306H10.3243L10.4821 7.11051ZM13.7382 7.11051L13.9158 7.66306H14.4881L14.0342 7.99854L14.2118 8.53135L13.7382 8.19588L13.2844 8.53135L13.462 7.99854L12.9883 7.66306H13.5606L13.7382 7.11051ZM16.9943 7.11051L17.1719 7.66306H17.7442L17.2706 7.99854L17.4679 8.53135L16.9943 8.19588L16.5207 8.53135L16.7181 7.99854L16.2444 7.66306H16.8167L16.9943 7.11051ZM2.37149 8.49188L2.54909 9.04443H3.12138L2.64776 9.37991L2.8451 9.91273L2.37149 9.57725L1.89787 9.91273L2.09521 9.37991L1.6216 9.04443H2.19388L2.37149 8.49188ZM5.60785 8.49188L5.80519 9.04443H6.35774L5.90386 9.37991L6.08147 9.91273L5.60785 9.57725L5.15397 9.91273L5.33158 9.37991L4.85796 9.04443H5.44998L5.60785 8.49188ZM8.86395 8.49188L9.04156 9.04443H9.61384L9.15996 9.37991L9.33756 9.91273L8.86395 9.57725L8.41007 9.91273L8.58768 9.37991L8.11406 9.04443H8.68635L8.86395 8.49188ZM12.12 8.49188L12.2977 9.04443H12.8699L12.3963 9.37991L12.5937 9.91273L12.12 9.57725L11.6464 9.91273L11.8438 9.37991L11.3702 9.04443H11.9424L12.12 8.49188ZM15.3564 8.49188L15.5538 9.04443H16.0866L15.6327 9.37991L15.8103 9.91273L15.3367 9.57725L14.8828 9.91273L15.0604 9.37991L14.5868 9.04443H15.1788L15.3564 8.49188ZM0.753307 9.87326L0.911179 10.4258H1.5032L1.02958 10.7613L1.20719 11.2941L0.733573 10.9586L0.299427 11.2941L0.477032 10.7613L0.00341797 10.4258H0.595436L0.753307 9.87326ZM3.98967 9.87326L4.16728 10.4258H4.73956L4.28568 10.7613L4.46328 11.2941L3.98967 10.9586L3.53579 11.2941L3.7134 10.7613L3.23978 10.4258H3.81207L3.98967 9.87326ZM7.24577 9.87326L7.42337 10.4258H7.99566L7.52204 10.7613L7.71938 11.2941L7.24577 10.9586L6.77215 11.2941L6.96949 10.7613L6.49588 10.4258H7.06816L7.24577 9.87326ZM10.4821 9.87326L10.6795 10.4258H11.232L10.7781 10.7613L10.9557 11.2941L10.4821 10.9586L10.0283 11.2941L10.2059 10.7613L9.73224 10.4258H10.3243L10.4821 9.87326ZM13.7382 9.87326L13.9158 10.4258H14.4881L14.0342 10.7613L14.2118 11.2941L13.7382 10.9586L13.2844 11.2941L13.462 10.7613L12.9883 10.4258H13.5606L13.7382 9.87326ZM16.9943 9.87326L17.1719 10.4258H17.7442L17.2706 10.7613L17.4679 11.2941L16.9943 10.9586L16.5207 11.2941L16.7181 10.7613L16.2444 10.4258H16.8167L16.9943 9.87326Z" fill="white"/>
</svg>
